{
  "accessors": [
    {
      "bufferView": 2,
      "componentType": 5126,
      "count": 65532,
      "max": [
        497.4674072265625,
        353.4425048828125,
        339.1146545410156
      ],
      "min": [
        -416.3420715332031,
        -0.807445764541626,
        -270.06097412109375
      ],
      "type": "VEC3"
    },
    {
      "bufferView": 2,
      "byteOffset": 786384,
      "componentType": 5126,
      "count": 65532,
      "max": [
        1.0,
        0.9999992847442627,
        0.9999991059303284
      ],
      "min": [
        -0.9999932646751404,
        -0.9073981046676636,
        -0.9999964237213135
      ],
      "type": "VEC3"
    },
    {
      "bufferView": 1,
      "componentType": 5126,
      "count": 65532,
      "max": [
        0.9996200203895569,
        0.9996110200881958
      ],
      "min": [
        0.0003769999893847853,
        0.0005569999921135604
      ],
      "type": "VEC2"
    },
    {
      "bufferView": 1,
      "byteOffset": 524256,
      "componentType": 5126,
      "count": 65532,
      "max": [
        0.0,
        0.0
      ],
      "min": [
        0.0,
        0.0
      ],
      "type": "VEC2"
    },
    {
      "bufferView": 0,
      "componentType": 5125,
      "count": 276228,
      "type": "SCALAR"
    },
    {
      "bufferView": 2,
      "byteOffset": 1572768,
      "componentType": 5126,
      "count": 65533,
      "max": [
        467.3246765136719,
        353.4425048828125,
        336.2174987792969
      ],
      "min": [
        -408.26849365234375,
        -0.6230965256690979,
        -265.0613098144531
      ],
      "type": "VEC3"
    },
    {
      "bufferView": 2,
      "byteOffset": 2359164,
      "componentType": 5126,
      "count": 65533,
      "max": [
        1.0,
        0.9999933838844299,
        0.9999988675117493
      ],
      "min": [
        -0.9999932646751404,
        -0.8979085087776184,
        -0.9999967813491821
      ],
      "type": "VEC3"
    },
    {
      "bufferView": 1,
      "byteOffset": 1048512,
      "componentType": 5126,
      "count": 65533,
      "max": [
        0.9996340274810791,
        0.999638020992279
      ],
      "min": [
        0.0003800000122282654,
        0.0005460000247694552
      ],
      "type": "VEC2"
    },
    {
      "bufferView": 1,
      "byteOffset": 1572776,
      "componentType": 5126,
      "count": 65533,
      "max": [
        0.0,
        0.0
      ],
      "min": [
        0.0,
        0.0
      ],
      "type": "VEC2"
    },
    {
      "bufferView": 0,
      "byteOffset": 1104912,
      "componentType": 5125,
      "count": 189858,
      "type": "SCALAR"
    },
    {
      "bufferView": 2,
      "byteOffset": 3145560,
      "componentType": 5126,
      "count": 56673,
      "max": [
        496.26788330078125,
        354.47119140625,
        339.86968994140625
      ],
      "min": [
        -413.15716552734375,
        -0.807445764541626,
        -267.6089172363281
      ],
      "type": "VEC3"
    },
    {
      "bufferView": 2,
      "byteOffset": 3825636,
      "componentType": 5126,
      "count": 56673,
      "max": [
        0.9999759197235107,
        0.9999992847442627,
        0.9999988675117493
      ],
      "min": [
        -0.9999561905860901,
        -0.974032461643219,
        -0.9999964237213135
      ],
      "type": "VEC3"
    },
    {
      "bufferView": 1,
      "byteOffset": 2097040,
      "componentType": 5126,
      "count": 56673,
      "max": [
        0.9996359944343567,
        0.9996330142021179
      ],
      "min": [
        0.00036199999158270657,
        0.0005879999953322113
      ],
      "type": "VEC2"
    },
    {
      "bufferView": 1,
      "byteOffset": 2550424,
      "componentType": 5126,
      "count": 56673,
      "max": [
        0.0,
        0.0
      ],
      "min": [
        0.0,
        0.0
      ],
      "type": "VEC2"
    },
    {
      "bufferView": 0,
      "byteOffset": 1864344,
      "componentType": 5125,
      "count": 90672,
      "type": "SCALAR"
    },
    {
      "bufferView": 2,
      "byteOffset": 4505712,
      "componentType": 5126,
      "count": 30,
      "max": [
        24374.544921875,
        -1.247388354386203e-06,
        24075.04296875
      ],
      "min": [
        -16414.837890625,
        -1.247388354386203e-06,
        -16783.154296875
      ],
      "type": "VEC3"
    },
    {
      "bufferView": 2,
      "byteOffset": 4506072,
      "componentType": 5126,
      "count": 30,
      "max": [
        6.876296898555715e-15,
        -1.0,
        0.0
      ],
      "min": [
        -1.575485517057735e-14,
        -1.0,
        0.0
      ],
      "type": "VEC3"
    },
    {
      "bufferView": 3,
      "componentType": 5126,
      "count": 30,
      "max": [
        1.0,
        6.876297322072188e-15,
        8.041726687224582e-06,
        -1.0
      ],
      "min": [
        1.0,
        -1.575485517057735e-14,
        -0.00012843430158682168,
        -1.0
      ],
      "type": "VEC4"
    },
    {
      "bufferView": 1,
      "byteOffset": 3003808,
      "componentType": 5126,
      "count": 30,
      "max": [
        0.7038601040840149,
        0.7505693435668945
      ],
      "min": [
        0.37033870816230774,
        0.2160351574420929
      ],
      "type": "VEC2"
    },
    {
      "bufferView": 0,
      "byteOffset": 2227032,
      "componentType": 5125,
      "count": 84,
      "type": "SCALAR"
    },
    {
      "bufferView": 2,
      "byteOffset": 4506432,
      "componentType": 5126,
      "count": 90,
      "max": [
        24374.544921875,
        -1.247388354386203e-06,
        24075.04296875
      ],
      "min": [
        -16414.837890625,
        -985.9637451171875,
        -16783.154296875
      ],
      "type": "VEC3"
    },
    {
      "bufferView": 2,
      "byteOffset": 4507512,
      "componentType": 5126,
      "count": 90,
      "max": [
        0.9984268546104431,
        1.0,
        1.0
      ],
      "min": [
        -0.9984268546104431,
        0.0,
        -1.0
      ],
      "type": "VEC3"
    },
    {
      "bufferView": 1,
      "byteOffset": 3004048,
      "componentType": 5126,
      "count": 90,
      "max": [
        0.7038601040840149,
        0.7505693435668945
      ],
      "min": [
        0.37033870816230774,
        0.2160351574420929
      ],
      "type": "VEC2"
    },
    {
      "bufferView": 0,
      "byteOffset": 2227368,
      "componentType": 5125,
      "count": 264,
      "type": "SCALAR"
    }
  ],
  "asset": {
    "extras": {
      "author": "PGSimulation (https://sketchfab.com/lama99)",
      "license": "CC-BY-4.0 (http://creativecommons.org/licenses/by/4.0/)",
      "source": "https://sketchfab.com/3d-models/tillamook-rock-lighthouse-b28848015b134700ac9cfb8b94ee962f",
      "title": "Tillamook Rock Lighthouse"
    },
    "generator": "Sketchfab-12.61.0",
    "version": "2.0"
  },
  "bufferViews": [
    {
      "buffer": 0,
      "byteLength": 2228424,
      "name": "floatBufferViews",
      "target": 34963
    },
    {
      "buffer": 0,
      "byteLength": 3004768,
      "byteOffset": 2228424,
      "byteStride": 8,
      "name": "floatBufferViews",
      "target": 34962
    },
    {
      "buffer": 0,
      "byteLength": 4508592,
      "byteOffset": 5233192,
      "byteStride": 12,
      "name": "floatBufferViews",
      "target": 34962
    },
    {
      "buffer": 0,
      "byteLength": 480,
      "byteOffset": 9741784,
      "byteStride": 16,
      "name": "floatBufferViews",
      "target": 34962
    }
  ],
  "buffers": [
    {
      "byteLength": 9742264,
      "uri": "scene.bin"
    }
  ],
  "images": [
    {
      "uri": "textures/Tillamook_Rock_Lighthouse_baseColor.png"
    },
    {
      "uri": "textures/rastMat_baseColor.png"
    },
    {
      "uri": "textures/rastMat_normal.png"
    }
  ],
  "materials": [
    {
      "doubleSided": true,
      "name": "Tillamook_Rock_Lighthouse",
      "pbrMetallicRoughness": {
        "baseColorTexture": {
          "index": 0
        },
        "metallicFactor": 0.0
      }
    },
    {
      "doubleSided": true,
      "name": "rastMat",
      "normalTexture": {
        "index": 2
      },
      "pbrMetallicRoughness": {
        "baseColorTexture": {
          "index": 1
        },
        "metallicFactor": 0.31581640436700575
      }
    },
    {
      "doubleSided": true,
      "name": "Material.001",
      "pbrMetallicRoughness": {
        "baseColorFactor": [
          0.0,
          0.0,
          0.0,
          1.0
        ],
        "metallicFactor": 0.0
      }
    }
  ],
  "meshes": [
    {
      "name": "Tillamook_Rock_Lighthouse_Tillamook_Rock_Lighthouse_0",
      "primitives": [
        {
          "attributes": {
            "NORMAL": 1,
            "POSITION": 0,
            "TEXCOORD_0": 2,
            "TEXCOORD_1": 3
          },
          "indices": 4,
          "material": 0,
          "mode": 4
        }
      ]
    },
    {
      "name": "Tillamook_Rock_Lighthouse_Tillamook_Rock_Lighthouse_0",
      "primitives": [
        {
          "attributes": {
            "NORMAL": 6,
            "POSITION": 5,
            "TEXCOORD_0": 7,
            "TEXCOORD_1": 8
          },
          "indices": 9,
          "material": 0,
          "mode": 4
        }
      ]
    },
    {
      "name": "Tillamook_Rock_Lighthouse_Tillamook_Rock_Lighthouse_0",
      "primitives": [
        {
          "attributes": {
            "NORMAL": 11,
            "POSITION": 10,
            "TEXCOORD_0": 12,
            "TEXCOORD_1": 13
          },
          "indices": 14,
          "material": 0,
          "mode": 4
        }
      ]
    },
    {
      "name": "EXPORT_GOOGLE_SAT_WM_rastMat_0",
      "primitives": [
        {
          "attributes": {
            "NORMAL": 16,
            "POSITION": 15,
            "TANGENT": 17,
            "TEXCOORD_0": 18
          },
          "indices": 19,
          "material": 1,
          "mode": 4
        }
      ]
    },
    {
      "name": "EXPORT_GOOGLE_SAT_WM_Material.001_0",
      "primitives": [
        {
          "attributes": {
            "NORMAL": 21,
            "POSITION": 20,
            "TEXCOORD_0": 22
          },
          "indices": 23,
          "material": 2,
          "mode": 4
        }
      ]
    }
  ],
  "nodes": [
    {
      "children": [
        1
      ],
      "matrix": [
        0.028456194326281548,
        0.0,
        0.0,
        0.0,
        0.0,
        6.318544426849104e-18,
        -0.028456194326281548,
        0.0,
        0.0,
        0.028456194326281548,
        6.318544426849104e-18,
        0.0,
        0.0,
        0.0,
        0.0,
        1.0
      ],
      "name": "Sketchfab_model"
    },
    {
      "children": [
        2
      ],
      "matrix": [
        0.009999999776482582,
        0.0,
        0.0,
        0.0,
        0.0,
        0.0,
        0.009999999776482582,
        0.0,
        0.0,
        -0.009999999776482582,
        0.0,
        0.0,
        0.0,
        0.0,
        0.0,
        1.0
      ],
      "name": "f02ad9d16f2f40c1a6593c4b5b7cfc9c.fbx"
    },
    {
      "children": [
        3,
        7
      ],
      "name": "RootNode"
    },
    {
      "children": [
        4,
        5,
        6
      ],
      "matrix": [
        12.031704609066855,
        -0.02680366477702802,
        0.00019325348081974575,
        0.0,
        0.026804360796262357,
        12.031410666482548,
        -0.08410216599632585,
        0.0,
        -5.889901567902419e-06,
        0.08410239448899132,
        12.031441476795402,
        0.0,
        -49.51362609863281,
        -78.71265411376953,
        84.17701721191406,
        1.0
      ],
      "name": "Tillamook_Rock_Lighthouse"
    },
    {
      "mesh": 0,
      "name": "Tillamook_Rock_Lighthouse_Tillamook_Rock_Lighthouse_0"
    },
    {
      "mesh": 1,
      "name": "Tillamook_Rock_Lighthouse_Tillamook_Rock_Lighthouse_0"
    },
    {
      "mesh": 2,
      "name": "Tillamook_Rock_Lighthouse_Tillamook_Rock_Lighthouse_0"
    },
    {
      "children": [
        8,
        9
      ],
      "matrix": [
        0.6443152200614585,
        0.0,
        -0.19342772801996336,
        0.0,
        0.0,
        0.672723114490509,
        0.0,
        0.0,
        0.19342772801996336,
        0.0,
        0.6443152200614585,
        0.0,
        -3341.847900390625,
        -56.856727600097656,
        -1635.91455078125,
        1.0
      ],
      "name": "EXPORT_GOOGLE_SAT_WM"
    },
    {
      "mesh": 3,
      "name": "EXPORT_GOOGLE_SAT_WM_rastMat_0"
    },
    {
      "mesh": 4,
      "name": "EXPORT_GOOGLE_SAT_WM_Material.001_0"
    }
  ],
  "samplers": [
    {
      "magFilter": 9729,
      "minFilter": 9987,
      "wrapS": 10497,
      "wrapT": 10497
    }
  ],
  "scene": 0,
  "scenes": [
    {
      "name": "Sketchfab_Scene",
      "nodes": [
        0
      ]
    }
  ],
  "textures": [
    {
      "sampler": 0,
      "source": 0
    },
    {
      "sampler": 0,
      "source": 1
    },
    {
      "sampler": 0,
      "source": 2
    }
  ]
}
