<svg 
    xmlns="http://www.w3.org/2000/svg" 
    version="1.1" 
    xmlns:xlink="http://www.w3.org/1999/xlink" 
    xmlns:svgjs="http://svgjs.dev/svgjs" 
    width="300" 
    height="300" 
    viewBox="106.00782394174519 104.68749999999999"
>
<rect 
    width="2000" 
    height="1500" 
    fill="#000000"
>
</rect>

<g 
    transform="matrix(0.75,0,0,0.75,249.090909090909,489.0391869507889)"
    >
<svg 
    viewBox="0 0 396 138" 
    data-background-color="#c8c8c8" 
    preserveAspectRatio="xMidYMid meet" 
    height="696" 
    width="2000" 
    xmlns="http://www.w3.org/2000/svg" 
    xmlns:xlink="http://www.w3.org/1999/xlink"
>
<g 
    id="tight-bounds" 
    transform="matrix(1,0,0,1,0.2400000000000091,-0.010359768599357722)"
>
<svg 
    viewBox="0 0 395.52 138.02071953719872" height="138.02071953719872" width="395.52"><g><svg viewBox="0 0 395.52 138.02071953719872" height="138.02071953719872" width="395.52"><g><svg viewBox="0 0 395.52 138.02071953719872" height="138.02071953719872" width="395.52"><g id="textblocktransform"><svg viewBox="0 0 395.52 138.02071953719872" height="138.02071953719872" width="395.52" id="textblock"><g><rect width="395.52" height="103.33727635179153" fill="none" stroke-width="9.018103199999999" stroke="#ffffff" data-fill-palette-color="none" data-stroke-palette-color="tertiary"></rect><rect width="395.52" height="34.68344318540717" y="103.33727635179153" fill="#ffffff" data-fill-palette-color="tertiary"></rect></g><g><svg viewBox="0 0 395.52 103.33727635179153" height="103.33727635179153" width="395.52"><g transform="matrix(1,0,0,1,23.607599999999998,23.607599999999998)"><svg width="348.3048" viewBox="2.1500000953674316 -36 230.23001098632812 37.099998474121094" height="56.122076351791534" data-palette-color="#000000"><path d="M13.65-35.7Q18.65-35.7 21.15-32.83 23.65-29.95 24.35-26.03 25.05-22.1 25.05-17.15L25.05-17.15Q25.05-13.15 23.85-8.93 22.65-4.7 20.15-1.8 17.65 1.1 14 1.1L14 1.1Q6.85 1.1 4.5-4.93 2.15-10.95 2.15-17.85L2.15-17.85Q2.15-24.5 3.98-28.5 5.8-32.5 8.43-34.1 11.05-35.7 13.65-35.7L13.65-35.7ZM13.6-11.6Q14.95-11.6 15.6-13.1 16.25-14.6 16.25-16.7L16.25-16.7Q16.25-18.7 15.63-20.2 15-21.7 13.95-21.7L13.95-21.7Q12.7-21.7 12.08-19.98 11.45-18.25 11.45-16.25L11.45-16.25Q11.45-14.2 11.85-12.9 12.25-11.6 13.6-11.6L13.6-11.6ZM51.85-0.7Q52-0.35 52-0.2L52-0.2Q52 0 51.45 0L51.45 0 48.65 0Q48.45 0 48.32-0.08 48.2-0.15 48.1-0.45L48.1-0.45Q47.9-1 47.55-2.25L47.55-2.25Q47.1-3.5 46.95-4.5L46.95-4.5Q46.8-5.25 46.47-6.3 46.15-7.35 45.9-7.9L45.9-7.9Q45.45-8.85 45.1-10.05L45.1-10.05 44.65-11.5Q44.4-12.05 44.27-12.18 44.15-12.3 43.85-12.3L43.85-12.3Q42.8-12.3 42.3-12.25L42.3-12.25 40.15-12.15Q39.75-12.1 36.45-12.1L36.45-12.1 33.4-12.1 33.3-12.1Q33-12.1 32.85-11.55L32.85-11.55 32.75-11.05 32.55-10.1Q32.45-9.85 31.9-7.2L31.9-7.2Q31.75-6.35 31.4-5L31.4-5Q31.3-4 30.95-3.35L30.95-3.35Q30.85-3.2 30.7-2.65 30.55-2.1 30.45-1.75L30.45-1.75Q30.3-1.35 30.1-0.45L30.1-0.45Q30.05-0.4 30-0.23 29.95-0.05 29.85-0.03 29.75 0 29.55 0L29.55 0 28.55 0Q28.1 0 28.3-0.65L28.3-0.65Q28.3-0.8 28.35-0.9L28.35-0.9Q28.35-1 28.4-1.15 28.45-1.3 28.55-1.6L28.55-1.6 29-3.45Q29.1-3.75 29.35-4.5 29.6-5.25 29.7-5.9L29.7-5.9Q29.95-7.1 30.65-9.55L30.65-9.55 31.05-10.95Q32-14.05 32.25-15.3L32.25-15.3 32.95-17.95Q33.45-19.6 33.55-20.05L33.55-20.05Q33.9-21.55 34.55-23.8L34.55-23.8 34.9-25.2 35.2-26.25Q35.7-27.95 36.05-28.7L36.05-28.7Q36.15-29 36.77-30.78 37.4-32.55 37.6-33.6L37.6-33.6Q37.95-34.8 38.32-35.4 38.7-36 39.35-36L39.35-36Q39.6-36 39.85-35.55 40.1-35.1 40.35-34.45 40.6-33.8 40.7-33.5L40.7-33.5Q41.1-32.55 42.1-28.75L42.1-28.75 42.5-27.35Q42.55-26.95 44.15-22.45L44.15-22.45 45.1-19.7 46-17.35Q47.4-13.4 47.8-12.55L47.8-12.55Q49.55-7.25 49.85-6.15L49.85-6.15Q50.2-4.85 50.97-2.9 51.75-0.95 51.85-0.7L51.85-0.7ZM42.5-15.55Q43.15-15.55 43.15-15.9L43.15-15.9Q43.15-16.15 42.8-17L42.8-17Q42.5-17.75 41.9-19.8L41.9-19.8Q41.45-21.45 41-22.65L41-22.65Q40.5-24.15 39.92-26.2 39.35-28.25 39.25-28.85L39.25-28.85Q38.5-31.5 38.25-31.5L38.25-31.5Q38.1-31.5 37.75-30.15L37.75-30.15 37.45-29.05Q37.1-27.7 36.55-25.68 36-23.65 35.55-22.25L35.55-22.25Q35.25-20.95 34.72-18.98 34.2-17 33.9-16.25L33.9-16.25Q33.8-15.95 33.8-15.9L33.8-15.9Q33.8-15.55 34.12-15.45 34.45-15.35 34.77-15.38 35.1-15.4 35.2-15.4L35.2-15.4 38.1-15.5Q38.7-15.6 39.8-15.6L39.8-15.6 42.5-15.55ZM68.09-35.95Q72.8-35.95 75.17-33.6 77.55-31.25 78.59-29.15L78.59-29.15Q78.8-28.65 79-28.1 79.2-27.55 79.34-27.15L79.34-27.15Q79.4-27.05 79.4-26.9L79.4-26.9Q79.4-26.75 79.27-26.65 79.15-26.55 78.95-26.48 78.75-26.4 78.5-26.25L78.5-26.25 77.34-25.65Q75.59-24.7 74.9-24.4L74.9-24.4Q73.8-23.75 73.09-23.25L73.09-23.25 72.15-22.6Q71.84-22.35 71.2-21.95L71.2-21.95Q71-21.8 70.8-21.8L70.8-21.8Q70.5-21.7 70.4-21.7L70.4-21.7Q70.15-21.7 69.97-22.05 69.8-22.4 69.65-22.6L69.65-22.6Q69.55-22.75 69.25-23.2 68.95-23.65 68.52-23.98 68.09-24.3 67.55-24.3L67.55-24.3Q66.05-24.3 65.2-21.98 64.34-19.65 64.34-17.1L64.34-17.1Q64.34-14.75 64.47-13.33 64.59-11.9 65.27-10.7 65.95-9.5 67.5-9.5L67.5-9.5Q69.5-9.5 70.3-12L70.3-12Q70.65-13.05 70.65-14.5L70.65-14.5 69.65-14.7Q68.45-14.9 67.9-14.95L67.9-14.95Q66.95-15.05 66.95-15.65L66.95-15.65Q66.95-16 67.34-17.6L67.34-17.6Q67.59-18.4 67.84-18.55 68.09-18.7 68.59-18.65L68.59-18.65Q68.84-18.6 69.77-18.48 70.7-18.35 72.7-18.15L72.7-18.15 75.45-17.75Q78.25-17.35 79.2-17.3L79.2-17.3Q80.05-17.25 80.34-16.4L80.34-16.4Q80.45-15.9 80.4-15.55L80.4-15.55Q80.05-9.35 78.07-5.73 76.09-2.1 73.5-0.7 70.9 0.7 68.34 0.7L68.34 0.7Q66.05 0.7 62.87-0.75 59.7-2.2 57.15-6.15 54.59-10.1 54.59-16.9L54.59-16.9Q54.59-24.8 57-29.03 59.4-33.25 62.4-34.6 65.4-35.95 68.09-35.95L68.09-35.95ZM95.79-35.7Q100.79-35.7 103.29-32.83 105.79-29.95 106.49-26.03 107.19-22.1 107.19-17.15L107.19-17.15Q107.19-13.15 105.99-8.93 104.79-4.7 102.29-1.8 99.79 1.1 96.14 1.1L96.14 1.1Q88.99 1.1 86.64-4.93 84.29-10.95 84.29-17.85L84.29-17.85Q84.29-24.5 86.12-28.5 87.94-32.5 90.57-34.1 93.19-35.7 95.79-35.7L95.79-35.7ZM95.74-11.6Q97.09-11.6 97.74-13.1 98.39-14.6 98.39-16.7L98.39-16.7Q98.39-18.7 97.77-20.2 97.14-21.7 96.09-21.7L96.09-21.7Q94.84-21.7 94.22-19.98 93.59-18.25 93.59-16.25L93.59-16.25Q93.59-14.2 93.99-12.9 94.39-11.6 95.74-11.6L95.74-11.6ZM118.69-32.6Q118.94-31.25 119.87-28.85 120.79-26.45 121.64-24.65L121.64-24.65Q122.34-23.45 123.52-20.78 124.69-18.1 125.19-16.55L125.19-16.55Q125.49-15.75 126.04-14.55L126.04-14.55 126.79-12.75 127.84-10.4Q129.29-13.25 129.94-14.55L129.94-14.55 133.19-21.05 135.44-25.55Q137.19-29.15 137.79-30.2L137.79-30.2Q138.74-32.15 139.79-33.83 140.84-35.5 141.29-35.5L141.29-35.5Q141.69-35.5 141.69-34.85L141.69-34.85Q141.69-34.25 141.44-33.25L141.44-33.25 141.24-32Q141.04-30.65 141.04-20L141.04-20Q141.04-17.65 140.92-14.3 140.79-10.95 140.69-9.85L140.69-9.85Q140.59-8.55 140.59-6L140.59-6 140.64-1.15 140.64-0.9Q140.64-0.3 140.34-0.4L140.34-0.4 140.24-0.4Q139.99-0.4 139.67-0.35 139.34-0.3 138.99-0.3L138.99-0.3Q138.79-0.35 138.72-0.55 138.64-0.75 138.64-1.25L138.64-1.25 138.64-4.2Q138.64-9.3 138.74-10.2L138.74-10.2Q138.84-11.25 138.97-14.1 139.09-16.95 139.09-18.7L139.09-18.7Q139.04-19.15 139.14-21.5L139.14-21.5 139.19-23.3 139.29-26.9Q138.94-26.4 138.69-25.85L138.69-25.85Q138.19-25 137.74-24L137.74-24 137.24-23Q136.39-21.35 135.29-19.13 134.19-16.9 133.39-15.35L133.39-15.35Q132.49-13.55 131.12-10.73 129.74-7.9 128.99-6.25L128.99-6.25Q127.69-3.2 127.49-3.2L127.49-3.2Q127.34-3.2 127.04-3.7 126.74-4.2 126.64-4.35L126.64-4.35Q126.29-4.9 125.54-6.68 124.79-8.45 124.34-9.8L124.34-9.8Q124.04-10.7 121.74-14.85L121.74-14.85Q119.94-18.3 119.89-18.45L119.89-18.45Q119.39-19.45 118.54-21.8L118.54-21.8Q117.99-23.05 117.69-24L117.69-24 117.59-21.8 117.49-18.4 117.39-8.55 117.34-0.75Q117.34-0.3 117.09-0.2 116.84-0.1 116.49-0.13 116.14-0.15 115.94-0.15L115.94-0.15 114.84-0.1Q113.94 0 113.54 0L113.54 0Q112.79 0 112.67-0.33 112.54-0.65 112.59-1.7L112.59-1.7Q112.59-3.35 112.54-4.85L112.54-4.85 112.44-11Q112.44-12.4 112.54-13.93 112.64-15.45 112.69-16.65L112.69-16.65Q112.94-20.25 112.94-21.7L112.94-21.7 113.04-31.1 112.99-33.8Q112.99-35.55 113.24-35.8L113.24-35.8Q113.39-35.95 113.59-35.95L113.59-35.95Q113.74-35.95 114.04-35.85 114.34-35.75 114.79-35.8L114.79-35.8Q115.24-35.85 116.04-35.85L116.04-35.85Q116.99-35.85 117.44-35.75L117.44-35.75Q117.89-35.6 118.09-35.02 118.29-34.45 118.44-33.73 118.59-33 118.69-32.6L118.69-32.6ZM167.84-29.85Q167.84-28.85 167.69-28L167.69-28Q167.64-27.25 166.99-27.25L166.99-27.25Q166.79-27.25 166.44-27.35 166.09-27.45 165.89-27.5L165.89-27.5Q165.14-27.65 161.54-27.65L161.54-27.65 159.64-27.7Q158.99-27.75 157.74-27.75L157.74-27.75Q156.84-27.75 156.39-27.7L156.39-27.7Q154.89-27.6 153.74-27.6L153.74-27.6 151.09-27.65Q150.69-27.65 150.64-27.48 150.59-27.3 150.59-26.65L150.59-26.65Q150.59-25.75 150.54-25.1L150.54-25.1Q150.44-23.1 150.44-21.85L150.44-21.85 150.44-18.9Q150.44-17.85 150.49-17.3L150.49-17.3Q150.89-17.25 151.84-17.25L151.84-17.25Q152.69-17.2 155.34-17.2L155.34-17.2Q156.44-17.2 158.54-17.3L158.54-17.3Q160.14-17.4 160.64-17.4L160.64-17.4Q161.34-17.4 162.04-17.32 162.74-17.25 163.09-17.25L163.09-17.25Q163.74-17.25 163.74-16.65L163.74-16.65Q163.74-16.45 163.69-16.07 163.64-15.7 163.64-15.1L163.64-15.1 163.69-12.45Q163.69-12 163.59-11.83 163.49-11.65 163.24-11.65L163.24-11.65Q163.09-11.65 162.81-11.73 162.54-11.8 162.34-11.8L162.34-11.8Q161.89-11.8 160.66-11.85 159.44-11.9 157.34-11.9L157.34-11.9Q155.09-11.9 153.44-11.7 151.79-11.5 151.44-11.5L151.44-11.5Q150.89-11.5 150.79-11.55L150.79-11.55Q150.54-11.55 150.49-11.6L150.49-11.6 150.49-6.6Q150.84-6.6 151.04-6.65L151.04-6.65 152.44-6.7 158.34-6.75Q160.14-6.75 161.19-6.7L161.19-6.7 164.64-6.65 166.74-6.7Q167.34-6.7 167.54-6.43 167.74-6.15 167.74-5.65L167.74-5.65 167.69-4.65 167.64-1.15Q167.64-0.35 167.29-0.18 166.94 0 166.29-0.03 165.64-0.05 165.24-0.05L165.24-0.05Q163.09-0.05 161.54-0.1L161.54-0.1 156.44-0.15Q155.84-0.15 150.44 0L150.44 0 148.54 0.05 148.24 0.1Q147.94 0.1 147.89-0.08 147.84-0.25 147.84-0.75L147.84-0.75Q147.79-1.3 147.79-2.6L147.79-2.6Q147.79-3 147.74-3.48 147.69-3.95 147.69-4.75L147.69-4.75 147.69-11.6Q147.69-12.6 147.76-13.55 147.84-14.5 147.84-14.95L147.84-14.95Q148.04-17.25 148.04-19.35L148.04-19.35Q148.04-21.95 147.89-23.45L147.89-23.45Q147.79-25.15 147.79-26.55L147.79-26.55Q147.79-29.7 147.94-33.9L147.94-33.9Q147.94-34.55 148.19-34.77 148.44-35 148.89-35L148.89-35 149.64-34.95Q150.09-34.95 151.09-34.88 152.09-34.8 153.54-34.8L153.54-34.8Q155.19-34.8 157.44-35.05L157.44-35.05Q160.14-35.25 161.04-35.25L161.04-35.25Q163.09-35.25 164.79-35.1L164.79-35.1 166.59-35.05Q167.24-35.05 167.44-34.75 167.64-34.45 167.64-33.65L167.64-33.65Q167.64-33.2 167.74-32.1L167.74-32.1Q167.84-30.8 167.84-29.85L167.84-29.85ZM174.54-34.65Q175.29-34.65 177.29-34.75L177.29-34.75Q179.69-34.85 180.84-34.85L180.84-34.85 186.14-34.75 189.24-34.65 192.19-34.65Q196.49-34.65 197.19-34.75L197.19-34.75 197.54-34.8Q197.99-34.8 198.09-34.63 198.19-34.45 198.19-34.25 198.19-34.05 198.19-34L198.19-34Q198.19-33.95 198.21-33.02 198.24-32.1 197.74-31.4L197.74-31.4Q192.14-23.3 190.84-21.5L190.84-21.5Q187.24-16.4 184.74-13.1L184.74-13.1 179.99-6.6Q181.39-6.4 182.04-6.35L182.04-6.35Q183.59-6.15 185.64-6.15L185.64-6.15 188.49-6.2Q189.34-6.25 191.09-6.25L191.09-6.25Q192.49-6.25 196.29-6.45L196.29-6.45 199.39-6.55Q199.99-6.55 200.14-6.25 200.29-5.95 200.31-5.55 200.34-5.15 200.34-5L200.34-5 200.24-1.35 200.24-1.05Q200.24-0.55 200.14-0.45 200.04-0.35 199.54-0.3L199.54-0.3 198.54-0.2Q197.44-0.2 195.79 0.05L195.79 0.05Q195.09 0.15 192.89 0.15L192.89 0.15 188.94 0.1Q187.99 0.05 186.54 0.05L186.54 0.05 174.29 0.05Q173.19 0.05 172.94-0.28 172.69-0.6 172.71-1.03 172.74-1.45 172.74-1.6L172.74-1.6 172.84-3.55Q172.99-5 172.99-6L172.99-6Q172.99-6.4 173.34-6.9 173.69-7.4 174.34-8.1L174.34-8.1 175.14-9Q176.49-10.8 178.96-14.13 181.44-17.45 182.04-18.5L182.04-18.5Q182.64-19.6 184.49-22.03 186.34-24.45 186.79-25.1L186.79-25.1 187.39-25.9Q188.14-27 189.19-29.15L189.19-29.15 190.09-31.1Q189.79-31.1 189.64-31.15L189.64-31.15 188.64-31.25 183.34-31.3Q182.44-31.3 181.94-31.25L181.94-31.25 180.29-31.2Q179.59-31.2 179.39-31.25L179.39-31.25Q178.94-31.35 175.84-31.35L175.84-31.35 173.74-31.35Q173.34-31.4 173.24-31.5 173.14-31.6 173.16-31.75 173.19-31.9 173.19-32L173.19-32Q173.19-32.55 173.04-33.95L173.04-33.95Q172.99-34.45 173.26-34.58 173.54-34.7 173.94-34.68 174.34-34.65 174.54-34.65L174.54-34.65ZM206.58-34.65Q207.33-34.65 209.33-34.75L209.33-34.75Q211.73-34.85 212.88-34.85L212.88-34.85 218.18-34.75 221.28-34.65 224.23-34.65Q228.53-34.65 229.23-34.75L229.23-34.75 229.58-34.8Q230.03-34.8 230.13-34.63 230.23-34.45 230.23-34.25 230.23-34.05 230.23-34L230.23-34Q230.23-33.95 230.26-33.02 230.28-32.1 229.78-31.4L229.78-31.4Q224.18-23.3 222.88-21.5L222.88-21.5Q219.28-16.4 216.78-13.1L216.78-13.1 212.03-6.6Q213.43-6.4 214.08-6.35L214.08-6.35Q215.63-6.15 217.68-6.15L217.68-6.15 220.53-6.2Q221.38-6.25 223.13-6.25L223.13-6.25Q224.53-6.25 228.33-6.45L228.33-6.45 231.43-6.55Q232.03-6.55 232.18-6.25 232.33-5.95 232.36-5.55 232.38-5.15 232.38-5L232.38-5 232.28-1.35 232.28-1.05Q232.28-0.55 232.18-0.45 232.08-0.35 231.58-0.3L231.58-0.3 230.58-0.2Q229.48-0.2 227.83 0.05L227.83 0.05Q227.13 0.15 224.93 0.15L224.93 0.15 220.98 0.1Q220.03 0.05 218.58 0.05L218.58 0.05 206.33 0.05Q205.23 0.05 204.98-0.28 204.73-0.6 204.76-1.03 204.78-1.45 204.78-1.6L204.78-1.6 204.88-3.55Q205.03-5 205.03-6L205.03-6Q205.03-6.4 205.38-6.9 205.73-7.4 206.38-8.1L206.38-8.1 207.18-9Q208.53-10.8 211.01-14.13 213.48-17.45 214.08-18.5L214.08-18.5Q214.68-19.6 216.53-22.03 218.38-24.45 218.83-25.1L218.83-25.1 219.43-25.9Q220.18-27 221.23-29.15L221.23-29.15 222.13-31.1Q221.83-31.1 221.68-31.15L221.68-31.15 220.68-31.25 215.38-31.3Q214.48-31.3 213.98-31.25L213.98-31.25 212.33-31.2Q211.63-31.2 211.43-31.25L211.43-31.25Q210.98-31.35 207.88-31.35L207.88-31.35 205.78-31.35Q205.38-31.4 205.28-31.5 205.18-31.6 205.21-31.75 205.23-31.9 205.23-32L205.23-32Q205.23-32.55 205.08-33.95L205.08-33.95Q205.03-34.45 205.31-34.58 205.58-34.7 205.98-34.68 206.38-34.65 206.58-34.65L206.58-34.65Z" opacity="1" transform="matrix(1,0,0,1,0,0)" fill="#ffffff" class="wordmark-text-0" data-fill-palette-color="primary" id="text-0"></path></svg></g></svg></g></svg></g></svg></g></svg></g><defs></defs></svg><rect width="395.52" height="138.02071953719872" fill="none" stroke="none" visibility="hidden"></rect></g></svg></g></svg>